<svg viewBox="0 0 600 450" xmlns="http://www.w3.org/2000/svg">
  <!-- Background circle -->
  <circle cx="300" cy="225" r="180" fill="#10b981" opacity="0.1"/>
  
  <!-- Main hub circle -->
  <circle cx="300" cy="225" r="48" fill="#10b981"/>
  
  <!-- Connection nodes (representing contacts) -->
  <!-- Top node -->
  <circle cx="300" cy="70" r="28" fill="#059669"/>
  <line x1="300" y1="98" x2="300" y2="177" stroke="#10b981" stroke-width="5"/>
  
  <!-- Top right node -->
  <circle cx="468" cy="130" r="28" fill="#059669"/>
  <line x1="445" y1="145" x2="335" y2="205" stroke="#10b981" stroke-width="5"/>
  
  <!-- Bottom right node -->
  <circle cx="468" cy="320" r="28" fill="#059669"/>
  <line x1="445" y1="305" x2="335" y2="245" stroke="#10b981" stroke-width="5"/>
  
  <!-- Bottom node -->
  <circle cx="300" cy="380" r="28" fill="#059669"/>
  <line x1="300" y1="352" x2="300" y2="273" stroke="#10b981" stroke-width="5"/>
  
  <!-- Bottom left node -->
  <circle cx="132" cy="320" r="28" fill="#059669"/>
  <line x1="155" y1="305" x2="265" y2="245" stroke="#10b981" stroke-width="5"/>
  
  <!-- Top left node -->
  <circle cx="132" cy="130" r="28" fill="#059669"/>
  <line x1="155" y1="145" x2="265" y2="205" stroke="#10b981" stroke-width="5"/>
  
  <!-- Small contact icons in each outer node -->
  <g fill="white">
    <!-- Top -->
    <circle cx="300" cy="64" r="7"/>
    <path d="M 300 74 Q 290 74 290 82 L 290 84 L 310 84 L 310 82 Q 310 74 300 74" />
    
    <!-- Top right -->
    <circle cx="468" cy="124" r="7"/>
    <path d="M 468 134 Q 458 134 458 142 L 458 144 L 478 144 L 478 142 Q 478 134 468 134" />
    
    <!-- Bottom right -->
    <circle cx="468" cy="314" r="7"/>
    <path d="M 468 324 Q 458 324 458 332 L 458 334 L 478 334 L 478 332 Q 478 324 468 324" />
    
    <!-- Bottom -->
    <circle cx="300" cy="374" r="7"/>
    <path d="M 300 384 Q 290 384 290 392 L 290 394 L 310 394 L 310 392 Q 310 384 300 384" />
    
    <!-- Bottom left -->
    <circle cx="132" cy="314" r="7"/>
    <path d="M 132 324 Q 122 324 122 332 L 122 334 L 142 334 L 142 332 Q 142 324 132 324" />
    
    <!-- Top left -->
    <circle cx="132" cy="124" r="7"/>
    <path d="M 132 134 Q 122 134 122 142 L 122 144 L 142 144 L 142 142 Q 142 134 132 134" />
  </g>
  
  <!-- Center icon (hub symbol) -->
  <g fill="white">
    <circle cx="300" cy="215" r="6"/>
    <circle cx="300" cy="235" r="6"/>
    <circle cx="290" cy="225" r="6"/>
    <circle cx="310" cy="225" r="6"/>
  </g>
</svg>